<svg width="1080" height="1080" viewBox="0 0 1080 1080" fill="none" xmlns="http://www.w3.org/2000/svg">
<path d="M82.5 1004.5L365.5 725L902.5 187.5H989.5V694L969.5 955.5L381.5 982.5L82.5 1004.5Z" fill="#C6DE41"/>
<path d="M977 107L694 386.5L157 924L70 924L70 417.5L90.0001 156L678 129L977 107Z" fill="#F4EBD0"/>
<path d="M97.8077 0.224537C103.73 0.175069 103.73 0.175069 109.773 0.124602C122.949 0.0405585 136.12 0.106964 149.296 0.17357C158.764 0.144913 168.232 0.107266 177.7 0.0613145C203.379 -0.0349928 229.055 0.00227927 254.734 0.0693284C281.618 0.122883 308.502 0.0732047 335.385 0.0400246C380.531 0.0015733 425.675 0.0522262 470.82 0.152926C523 0.267974 575.179 0.230706 627.359 0.114315C672.174 0.0183551 716.989 0.00485648 761.805 0.0601679C788.565 0.0931115 815.324 0.0975588 842.084 0.0276861C867.243 -0.0334195 892.4 0.0090488 917.559 0.131152C926.788 0.159085 936.017 0.151111 945.245 0.104459C957.853 0.0466045 970.454 0.119237 983.062 0.224537C986.706 0.177379 990.349 0.130221 994.104 0.0816342C1026.86 0.611551 1044.53 13.8654 1067.35 36.0927C1078.46 54.3607 1079.04 69.5587 1078.78 90.3214C1078.81 94.2889 1078.84 98.2564 1078.88 102.344C1078.96 115.616 1078.89 128.883 1078.83 142.155C1078.86 151.68 1078.89 161.204 1078.94 170.729C1079.04 196.587 1079 222.444 1078.93 248.302C1078.88 275.37 1078.93 302.438 1078.96 329.507C1079 374.975 1078.95 420.443 1078.85 465.912C1078.73 518.452 1078.77 570.991 1078.89 623.531C1078.98 668.653 1079 713.775 1078.94 758.898C1078.91 785.841 1078.9 812.784 1078.97 839.728C1079.03 865.071 1078.99 890.411 1078.87 915.754C1078.84 925.045 1078.85 934.336 1078.9 943.627C1078.95 956.333 1078.88 969.031 1078.78 981.736C1078.82 985.394 1078.87 989.052 1078.92 992.821C1078.46 1021.34 1071.49 1037.35 1054.99 1059.92C1031.71 1076 1010.45 1078.08 982.897 1077.9C978.93 1077.93 974.964 1077.97 970.878 1078C957.642 1078.1 944.409 1078.09 931.173 1078.08C921.661 1078.13 912.15 1078.18 902.638 1078.24C876.84 1078.38 851.042 1078.42 825.244 1078.43C809.12 1078.44 792.997 1078.47 776.874 1078.52C720.61 1078.66 664.348 1078.73 608.084 1078.71C555.658 1078.7 503.234 1078.87 450.809 1079.12C405.773 1079.33 360.739 1079.41 315.703 1079.4C288.816 1079.4 261.931 1079.45 235.044 1079.61C209.758 1079.77 184.477 1079.77 159.191 1079.65C149.922 1079.64 140.653 1079.67 131.384 1079.77C52.642 1080.53 52.642 1080.53 28.6578 1061C6.68274 1037.29 3.22229 1015.51 3.36277 983.879C3.33885 979.934 3.31494 975.989 3.2903 971.924C3.22346 958.698 3.23213 945.472 3.24085 932.246C3.20927 922.766 3.17335 913.285 3.13342 903.805C3.04011 878.046 3.01544 852.287 3.00871 826.527C2.99869 805.027 2.95986 783.527 2.92245 762.027C2.83648 711.303 2.81074 660.579 2.81824 609.855C2.82458 557.522 2.7132 505.19 2.54652 452.857C2.40853 407.932 2.35188 363.008 2.35863 318.083C2.36132 291.249 2.33119 264.415 2.21954 237.581C2.11739 212.343 2.11649 187.106 2.19333 161.867C2.20437 152.608 2.1794 143.349 2.11564 134.09C2.03417 121.44 2.08315 108.798 2.16452 96.148C2.11023 92.4916 2.05593 88.8352 2 85.068C2.37305 58.7908 9.04415 43.9944 25.8839 24.0492C49.2522 4.27545 67.993 -0.161309 97.8077 0.224537ZM168.375 187.886C161.771 201.113 162.448 210.004 162.463 224.807C162.456 230.381 162.448 235.954 162.441 241.696C162.46 247.835 162.479 253.975 162.498 260.3C162.498 266.745 162.497 273.19 162.496 279.831C162.499 297.53 162.526 315.229 162.562 332.929C162.595 351.416 162.598 369.904 162.605 388.391C162.621 423.411 162.664 458.431 162.717 493.452C162.776 533.316 162.805 573.18 162.832 613.045C162.887 695.059 162.98 777.074 163.097 859.089C166.581 859.089 170.064 859.089 173.652 859.089C181.034 851.798 181.034 851.798 188.827 841.942C215.485 810.588 244.77 781.929 273.892 752.904C280.241 746.555 286.59 740.205 292.938 733.853C306.53 720.258 320.131 706.67 333.738 693.089C355.237 671.631 376.716 650.153 398.191 628.671C443.721 583.134 489.273 537.62 534.827 492.107C584.139 442.841 633.446 393.571 682.729 344.275C704.1 322.899 725.484 301.536 746.878 280.183C760.131 266.95 773.373 253.707 786.612 240.46C792.777 234.296 798.947 228.137 805.122 221.982C813.509 213.62 821.881 205.242 830.248 196.86C834.948 192.165 839.648 187.47 844.49 182.633C855.045 173.814 855.045 173.814 854.443 166.746C801.001 152.155 743.377 145.58 690.842 166.746C614.255 211.865 553.321 288.296 493.68 352.942C466.852 381.801 439.381 410.046 412.021 438.398C370.763 481.292 330.381 524.872 289.756 568.41C288.015 434.117 286.273 299.824 284.479 161.461C203.981 152.438 203.981 152.438 168.375 187.886ZM907.217 230.167C899.819 237.474 899.819 237.474 892.012 247.343C865.51 278.514 836.413 307.011 807.462 335.866C801.164 342.163 794.868 348.461 788.572 354.76C775.092 368.244 761.603 381.719 748.108 395.187C726.787 416.468 705.486 437.769 684.188 459.073C639.034 504.233 593.859 549.37 548.681 594.505C499.775 643.365 450.874 692.228 401.998 741.117C380.803 762.316 359.596 783.502 338.378 804.679C325.235 817.802 312.103 830.935 298.973 844.072C292.859 850.185 286.74 856.294 280.617 862.397C272.298 870.69 263.996 878.998 255.698 887.311C248.707 894.295 248.707 894.295 241.574 901.42C231.102 910.175 231.102 910.175 231.704 917.224C315.884 917.595 400.063 917.874 484.243 918.046C523.33 918.128 562.416 918.239 601.503 918.42C635.572 918.578 669.641 918.681 703.711 918.716C721.749 918.737 739.786 918.785 757.824 918.901C777.966 919.015 798.105 919.032 818.246 919.024C827.209 919.11 827.209 919.11 836.352 919.197C841.85 919.175 847.349 919.153 853.013 919.131C860.157 919.153 860.157 919.153 867.445 919.175C883.821 916.788 893.777 910.865 907.217 901.369C920.034 883.796 918.996 867.065 918.803 845.793C918.769 839.185 918.735 832.577 918.7 825.768C918.611 818.887 918.523 812.006 918.432 804.917C918.384 797.954 918.336 790.991 918.287 783.818C918.163 766.627 917.974 749.437 917.772 732.247C879.458 732.247 841.143 732.247 801.668 732.247C801.668 754.92 801.668 777.593 801.668 800.953C707.624 799.209 613.58 797.465 516.686 795.668C608.989 703.232 701.291 610.797 796.391 515.56C799.003 562.65 799.003 562.65 801.668 610.691C839.982 610.691 878.297 610.691 917.772 610.691C917.772 485.118 917.772 359.545 917.772 230.167C914.289 230.167 910.806 230.167 907.217 230.167Z" fill="#071C21"/>
</svg>
